<svg width="64" height="64" viewBox="0 0 64 64" fill="none" xmlns="http://www.w3.org/2000/svg">
<g clip-path="url(#clip0_262_1810)">
<path fill-rule="evenodd" clip-rule="evenodd" d="M11.9499 48.3C3.34988 46.55 -1.25012 36.7 0.29988 31.4C0.59988 30.35 1.14988 29.5 1.89988 28.9C3.54988 27.5 8.24988 15.95 9.29988 15.5C10.6999 14.9 14.7499 16.1 14.8499 16.6C14.9499 17.1 14.7499 18.65 13.9499 19.2C13.3499 19.65 11.1499 16.9 10.2499 17.35C8.89988 18 6.89988 25.85 6.34988 27.35C9.44988 27.1 13.3999 27.8 17.6999 28.95C25.9999 31.15 31.8499 35.75 31.8499 35.75C31.8499 35.75 38.2499 30.95 46.3499 28.8C50.5999 27.65 54.5999 26.95 57.6999 27.2C57.1499 25.7 55.1499 17.95 53.7999 17.3C52.8999 16.85 50.6999 19.6 50.0999 19.15C49.3499 18.55 49.1499 16.95 49.2499 16.45C49.3499 15.95 53.3499 14.85 54.7499 15.45C55.7999 15.9 60.4999 27.35 62.1499 28.75C62.8999 29.35 63.4499 30.2 63.7499 31.25C65.2999 36.55 60.3999 46.5 51.7999 48.3C37.9999 51.15 33.7999 38.5 32.0499 38.5C30.2999 38.5 25.9499 51.1 11.9499 48.3ZM3.99988 36.85C4.29988 41 9.29988 46.35 15.1499 46.35C21.0499 46.35 24.9999 45 26.9499 38.85C28.4499 34.15 16.3999 30.05 10.5499 30.05C4.64988 30 3.69988 32.65 3.99988 36.85ZM60.0499 36.7C59.7999 40.8 54.7499 46.35 48.8999 46.35C43.0499 46.35 38.9999 45.15 37.0999 38.85C35.6999 34.1 47.6499 29.95 53.4999 29.95C59.3499 29.9 60.2999 32.55 60.0499 36.7ZM3.69988 29.35C4.19988 29.35 4.64988 29.75 4.64988 30.3C4.64988 30.8 4.24988 31.25 3.69988 31.25C3.19988 31.25 2.74988 30.85 2.74988 30.3C2.79988 29.8 3.19988 29.35 3.69988 29.35ZM1.84988 32.15C2.34988 32.15 2.79988 32.55 2.79988 33.1C2.79988 33.6 2.39988 34.05 1.84988 34.05C1.34988 34.05 0.89988 33.65 0.89988 33.1C0.89988 32.55 1.34988 32.15 1.84988 32.15ZM60.2999 29.35C60.7999 29.35 61.2499 29.75 61.2499 30.3C61.2499 30.8 60.8499 31.25 60.2999 31.25C59.7999 31.25 59.3499 30.85 59.3499 30.3C59.3499 29.8 59.7499 29.35 60.2999 29.35ZM62.1499 32.15C62.6499 32.15 63.0999 32.55 63.0999 33.1C63.0999 33.6 62.6999 34.05 62.1499 34.05C61.6499 34.05 61.1999 33.65 61.1999 33.1C61.1999 32.55 61.6499 32.15 62.1499 32.15Z" fill="#EE5253"/>
</g>
<defs>
<clipPath id="clip0_262_1810">
<rect width="64" height="64" fill="white"/>
</clipPath>
</defs>
</svg>
