<svg width="64" height="64" viewBox="0 0 64 64" fill="none" xmlns="http://www.w3.org/2000/svg">
<path fill-rule="evenodd" clip-rule="evenodd" d="M56.45 26.1C55.65 22.95 53.7 20.05 50.35 20.05H45.6C44.7 7.55 38.95 0 32 0C25.05 0 19.3 7.55 18.4 20.05H13.65C10.25 20.05 8.25002 22.7 7.55002 26.1L1.40002 57.95C1.40002 61.3 4.15002 64 7.55002 64H56.45C59.85 64 62.6 61.3 62.6 57.95L56.45 26.1ZM32 3.85C37.4 3.85 41.9 10.05 42.6 20.1H21.4C22.1 10 26.6 3.85 32 3.85ZM19.9 31.3C17.55 31.3 15.65 29.4 15.65 27.05C15.65 25.2 16.8 23.65 18.4 23.05V24.75C17.65 25.25 17.15 26.1 17.15 27.05C17.15 28.55 18.4 29.8 19.9 29.8C21.45 29.8 22.65 28.55 22.65 27.05C22.65 26.1 22.15 25.25 21.4 24.75V23C23 23.6 24.15 25.15 24.15 27C24.15 29.35 22.25 31.3 19.9 31.3ZM44.1 31.3C41.75 31.3 39.85 29.4 39.85 27.05C39.85 25.2 41 23.65 42.6 23.05V24.7C41.8 25.2 41.25 26.05 41.25 27.1C41.25 28.6 42.5 29.85 44 29.85C45.5 29.85 46.75 28.6 46.75 27.1C46.75 26.2 46.3 25.35 45.6 24.85V23C47.2 23.6 48.35 25.15 48.35 27C48.35 29.35 46.45 31.3 44.1 31.3Z" fill="#EE5253"/>
</svg>
