<svg width="64" height="64" viewBox="0 0 64 64" fill="none" xmlns="http://www.w3.org/2000/svg">
<path d="M47.85 3.5H32.35V9.1C33.55 8.75 36.5 7.85 39.35 7.3C42.65 6.65 46.9501 6.25 48.05 6.15L47.85 3.5ZM47.6 0H32.3V2.15H47.75L47.6 0ZM16.15 3.5L15.95 6.25C17.6 6.4 21.2 6.75 24 7.3C26.75 7.85 29.6 8.65 30.9 9.05V3.5H16.15ZM16.4 0L16.25 2.15H30.9V0H16.4ZM46.5 13.85L42.05 15.4L37.35 14.25L37.75 19.1L42.85 21.2L46.9501 18.75L46.5 13.85ZM46.4501 13.2L46.3 11.6L37.1501 12L37.3 13.65L42.05 14.8L46.4501 13.2ZM46.3 11.6L37.1501 12L37.3 13.65L42.05 14.8L46.5 13.25L46.3 11.6ZM46.5 13.85L42.05 15.4L37.35 14.25L37.75 19.1L42.85 21.2L46.9501 18.75L46.5 13.85ZM22.05 15.4L17.6 13.85L17.2 18.75L21.3 21.2L26.4 19.1L26.8 14.25L22.05 15.4ZM17.8 11.6L17.65 13.2L22.1 14.75L26.8 13.6L26.9501 11.95L17.8 11.6ZM22.05 15.4L17.6 13.85L17.2 18.75L21.3 21.2L26.4 19.1L26.8 14.25L22.05 15.4ZM17.8 11.6L17.65 13.2L22.1 14.75L26.8 13.6L26.9501 11.95L17.8 11.6ZM48.1 7.4C46.9 7.45 43.9501 7.65 40 8.35C36.1 9.05 33.4 9.95 32.3 10.4V25.35L35.4001 63.95L53.2001 63.1L48.1 7.4ZM42.9001 21.9L37.05 19.5L36.4001 11.4L47 10.95L47.6501 19.05L42.9001 21.9ZM42.05 15.4L37.35 14.25L37.75 19.1L42.85 21.2L46.9501 18.75L46.5 13.85L42.05 15.4ZM46.4501 13.2L46.3 11.6L37.1501 12L37.3 13.65L42.05 14.8L46.4501 13.2ZM46.5 13.85L42.05 15.4L37.35 14.25L37.75 19.1L42.85 21.2L46.9501 18.75L46.5 13.85ZM46.4501 13.2L46.3 11.6L37.1501 12L37.3 13.65L42.05 14.8L46.4501 13.2ZM22.05 15.4L17.6 13.85L17.2 18.75L21.3 21.2L26.4 19.1L26.8 14.25L22.05 15.4ZM17.8 11.6L17.65 13.2L22.1 14.75L26.8 13.6L26.9501 11.95L17.8 11.6ZM17.8 11.6L17.65 13.2L22.1 14.75L26.8 13.6L26.9501 11.95L17.8 11.6ZM17.6 13.85L17.2 18.75L21.3 21.2L26.4 19.1L26.8 14.25L22.1 15.4L17.6 13.85ZM23.35 8.35C19.95 7.75 17.35 7.5 15.9 7.4L10.8 63.15L28.6 64L30.9 25.4V10.4C29.7 9.95 27.1 9.05 23.35 8.35ZM27.05 19.5L21.2 21.9L16.45 19.05L17.1 10.95L27.7001 11.4L27.05 19.5ZM26.85 13.6L27 11.95L17.85 11.55L17.7 13.15L22.15 14.7L26.85 13.6ZM26.4 19.1L26.8 14.25L22.1 15.4L17.65 13.85L17.25 18.75L21.35 21.2L26.4 19.1ZM22.05 15.4L17.6 13.85L17.2 18.75L21.3 21.2L26.4 19.1L26.8 14.25L22.05 15.4ZM17.8 11.6L17.65 13.2L22.1 14.75L26.8 13.6L26.9501 11.95L17.8 11.6ZM46.3 11.6L37.1501 12L37.3 13.65L42.05 14.8L46.5 13.25L46.3 11.6ZM46.5 13.85L42.05 15.4L37.35 14.25L37.75 19.1L42.85 21.2L46.9501 18.75L46.5 13.85ZM17.8 11.6L17.65 13.2L22.1 14.75L26.8 13.6L26.9501 11.95L17.8 11.6ZM22.05 15.4L17.6 13.85L17.2 18.75L21.3 21.2L26.4 19.1L26.8 14.25L22.05 15.4Z" fill="#EE5253"/>
</svg>
