<svg width="64" height="64" viewBox="0 0 64 64" fill="none" xmlns="http://www.w3.org/2000/svg">
<path d="M64 50.25V58.25H55.15V51.1H52.65V58.25H44.2V51.1H41.7V58.25H33.25V51.1H30.75V58.25H22.3V51.1H19.8V58.25H11.35V51.1H8.85V58.25H0V50.25H2.85C3.15 31.5 13.3 20.25 26.65 17.9C25.5 16.6 24.8 14.9 24.8 13.05C24.8 9.04999 28.05 5.79999 32.05 5.79999C36.05 5.79999 39.35 8.99999 39.35 13.05C39.35 14.9 38.65 16.6 37.5 17.9C50.85 20.25 61 31.5 61.3 50.25H64Z" fill="#EE5253"/>
<path d="M64 50.25V58.25H55.15V51.1H52.65V58.25H44.2V51.1H41.7V58.25H33.25V51.1H30.75V58.25H22.3V51.1H19.8V58.25H11.35V51.1H8.85V58.25H0V50.25H2.85C3.15 31.5 13.3 20.25 26.65 17.9C25.5 16.6 24.8 14.9 24.8 13.05C24.8 9.04999 28.05 5.79999 32.05 5.79999C36.05 5.79999 39.35 8.99999 39.35 13.05C39.35 14.9 38.65 16.6 37.5 17.9C50.85 20.25 61 31.5 61.3 50.25H64Z" fill="#EE5253"/>
</svg>
