<svg width="64" height="64" viewBox="0 0 64 64" fill="none" xmlns="http://www.w3.org/2000/svg">
<path d="M51.6999 54.2L61.3999 53.1C61.3999 53.1 52.1499 10.2 51.4999 8.75C50.8999 7.35 41.1499 4.4 41.1499 4.4C41.1499 4.4 37.5999 0 31.9999 0C26.7499 0 23.1999 4.65 23.1999 4.65C23.1999 4.65 13.4999 7.4 13.1499 8.8C12.7999 10.2 2.6499 52.8 2.6499 52.8L12.6499 53.9L17.9999 27.6C17.9999 27.6 20.4999 32.25 20.4999 38.9C20.4999 43.05 13.1499 55.2 13.1499 59.75C13.1499 62.05 22.8999 63.8 24.5999 63.95C26.8999 64.15 30.8999 60.55 31.1499 59.3C31.3499 58.45 34.2999 48.65 34.2999 45.45C34.2999 42.15 19.6999 22.05 19.6999 22.05L24.0499 18.3L18.0499 14.6C18.0499 14.6 23.9999 1.1 32.1499 1.1C41.2499 1.1 46.0499 14.6 46.0499 14.6L40.0499 18.3L44.4999 21.1C44.4999 21.1 35.3499 31.6 35.3499 45.8C35.3499 49.85 32.9499 58.4 32.7499 59.25C32.4499 60.7 36.3999 64.15 39.4999 63.9C41.8999 63.75 50.9499 62.7 50.9499 60.55C50.9499 57.05 43.5999 44 43.5999 38.85C43.5999 32.6 46.0999 27.15 46.0999 27.15L51.6999 54.2ZM29.7999 42.15C30.6499 42.15 31.2999 42.8 31.2999 43.65C31.2999 44.5 30.6499 45.15 29.7999 45.15C28.9499 45.15 28.2999 44.5 28.2999 43.65C28.2999 42.85 28.9499 42.15 29.7999 42.15ZM29.7999 47.35C30.6499 47.35 31.2999 48 31.2999 48.85C31.2999 49.65 30.6499 50.35 29.7999 50.35C28.9499 50.35 28.2999 49.7 28.2999 48.85C28.2999 48.05 28.9499 47.35 29.7999 47.35ZM44.3499 14.15C44.3499 14.15 40.3999 2.4 32.3499 2.4C24.6499 2.4 19.8499 14.25 19.8499 14.25L26.3999 18.35L21.7499 22.05L34.4499 42.15C34.4499 42.15 35.0999 35.2 37.6499 29.5C39.9499 24.25 42.2499 21.35 42.2499 21.35L37.6999 18.35L44.3499 14.15ZM33.7999 39.75C33.7999 39.75 25.2499 14.05 25.2499 12.4C25.2499 9.35 26.6999 4.35 32.3999 4.35C37.9499 4.35 38.4499 9.45 38.4499 12.4C38.4499 13.85 33.7999 39.75 33.7999 39.75Z" fill="#EE5253"/>
<path d="M51.6999 54.2L61.3999 53.1C61.3999 53.1 52.1499 10.2 51.4999 8.75C50.8999 7.35 41.1499 4.4 41.1499 4.4C41.1499 4.4 37.5999 0 31.9999 0C26.7499 0 23.1999 4.65 23.1999 4.65C23.1999 4.65 13.4999 7.4 13.1499 8.8C12.7999 10.2 2.6499 52.8 2.6499 52.8L12.6499 53.9L17.9999 27.6C17.9999 27.6 20.4999 32.25 20.4999 38.9C20.4999 43.05 13.1499 55.2 13.1499 59.75C13.1499 62.05 22.8999 63.8 24.5999 63.95C26.8999 64.15 30.8999 60.55 31.1499 59.3C31.3499 58.45 34.2999 48.65 34.2999 45.45C34.2999 42.15 19.6999 22.05 19.6999 22.05L24.0499 18.3L18.0499 14.6C18.0499 14.6 23.9999 1.1 32.1499 1.1C41.2499 1.1 46.0499 14.6 46.0499 14.6L40.0499 18.3L44.4999 21.1C44.4999 21.1 35.3499 31.6 35.3499 45.8C35.3499 49.85 32.9499 58.4 32.7499 59.25C32.4499 60.7 36.3999 64.15 39.4999 63.9C41.8999 63.75 50.9499 62.7 50.9499 60.55C50.9499 57.05 43.5999 44 43.5999 38.85C43.5999 32.6 46.0999 27.15 46.0999 27.15L51.6999 54.2ZM29.7999 42.15C30.6499 42.15 31.2999 42.8 31.2999 43.65C31.2999 44.5 30.6499 45.15 29.7999 45.15C28.9499 45.15 28.2999 44.5 28.2999 43.65C28.2999 42.85 28.9499 42.15 29.7999 42.15ZM29.7999 47.35C30.6499 47.35 31.2999 48 31.2999 48.85C31.2999 49.65 30.6499 50.35 29.7999 50.35C28.9499 50.35 28.2999 49.7 28.2999 48.85C28.2999 48.05 28.9499 47.35 29.7999 47.35ZM44.3499 14.15C44.3499 14.15 40.3999 2.4 32.3499 2.4C24.6499 2.4 19.8499 14.25 19.8499 14.25L26.3999 18.35L21.7499 22.05L34.4499 42.15C34.4499 42.15 35.0999 35.2 37.6499 29.5C39.9499 24.25 42.2499 21.35 42.2499 21.35L37.6999 18.35L44.3499 14.15ZM33.7999 39.75C33.7999 39.75 25.2499 14.05 25.2499 12.4C25.2499 9.35 26.6999 4.35 32.3999 4.35C37.9499 4.35 38.4499 9.45 38.4499 12.4C38.4499 13.85 33.7999 39.75 33.7999 39.75Z" fill="#EE5253"/>
</svg>
