<svg width="64" height="64" viewBox="0 0 64 64" fill="none" xmlns="http://www.w3.org/2000/svg">
<g clip-path="url(#clip0_262_1698)">
<path d="M21.5 61.65C21.25 58.1 18.2 41.15 18.2 38.9C18.2 32.95 22.4 27.4 22.35 24.25C22.3 21.1 21.2 11.35 20.85 11.35C20.5 11.35 19.9 15.85 19.9 15.85L13.85 15.6C13.85 15.6 14.95 5.45 15.6 3.55C16.55 0.95 23.15 0.1 23.95 0.05C24.75 0 28.8 4.45 32 4.5C35.2 4.5 39.05 0 40.05 0C41.05 0 47.6 0.8 48.45 3.5C49.05 5.45 50.2 15.55 50.2 15.55L44.15 15.8C44.15 15.8 43.55 11.3 43.2 11.3C42.85 11.3 41.8 21 41.7 24.2C41.6 27.4 45.85 33.15 45.85 38.85C45.85 41.1 42.8 58 42.55 61.6C42.3 64.8 21.7 64.8 21.5 61.65Z" fill="#EE5253"/>
</g>
<defs>
<clipPath id="clip0_262_1698">
<rect width="64" height="64" fill="white"/>
</clipPath>
</defs>
</svg>
