<svg width="64" height="64" viewBox="0 0 64 64" fill="none" xmlns="http://www.w3.org/2000/svg">
<g clip-path="url(#clip0_262_1922)">
<path d="M5.15 63.85C5.15 63.85 5.2 54 4.1 45.5C3.15 37.7 1 29.2 1 29.2C1 29.2 12.3 29.05 22.45 38.25C28.7 43.9 29.05 54.15 41.35 55.7C53.7 57.2 62.7 52.3 62.7 52.3L62.05 58.75C62.05 58.75 57.4 63.1 49.65 63.85C25.6 66.15 25.9 46 18.6 39.4C14.35 35.55 11.35 40.65 11.35 43.45C11.35 45.45 11.35 63.85 11.35 63.85H5.15ZM21.7 34.85C28.5 39.85 30.2 49.7 37.2 52.25C51.05 57.25 62.75 50.1 62.75 50.1C62.75 50.1 63.95 45.55 61.15 43.5C56.25 39.85 46 35.2 41.35 27.3C35.25 17.1 36.1 3.05 36.1 3.05L7.95 0C7.95 0 8.45 9.65 8.15 11C7.8 12.35 1 19.15 1 26.6C3.5 27 12.8 28.3 21.7 34.85Z" fill="#EE5253"/>
<path fill-rule="evenodd" clip-rule="evenodd" d="M5.15 63.85C5.15 63.85 5.2 54 4.1 45.5C3.15 37.7 1 29.2 1 29.2C1 29.2 12.3 29.05 22.45 38.25C28.7 43.9 29.05 54.15 41.35 55.7C53.7 57.2 62.7 52.3 62.7 52.3L62.05 58.75C62.05 58.75 57.4 63.1 49.65 63.85C25.6 66.15 25.9 46 18.6 39.4C14.35 35.55 11.35 40.65 11.35 43.45C11.35 45.45 11.35 63.85 11.35 63.85H5.15ZM21.7 34.85C28.5 39.85 30.2 49.7 37.2 52.25C51.05 57.25 62.75 50.1 62.75 50.1C62.75 50.1 63.95 45.55 61.15 43.5C56.25 39.85 46 35.2 41.35 27.3C35.25 17.1 36.1 3.05 36.1 3.05L7.95 0C7.95 0 8.45 9.65 8.15 11C7.8 12.35 1 19.15 1 26.6C3.5 27 12.8 28.3 21.7 34.85Z" fill="#EE5253"/>
</g>
<defs>
<clipPath id="clip0_262_1922">
<rect width="64" height="64" fill="white"/>
</clipPath>
</defs>
</svg>
