<svg width="64" height="64" viewBox="0 0 64 64" fill="none" xmlns="http://www.w3.org/2000/svg">
<path d="M51.3 6.55002C47.55 3.80002 43.2 3.15002 43.2 3.15002C43.15 10.35 37.25 14.8 32 14.8C26.75 14.8 20.85 10.35 20.8 3.15002C20.8 3.15002 16.5 3.80002 12.7 6.55002C8.65 9.45002 0 16.65 0 16.65L8.7 27.15L10.25 26.45L10.6 26.3L12.7 25.35V26.3H51.3V25.35L55.3 27.2L64 16.7C64 16.65 55.7 9.75002 51.3 6.55002ZM12.7 33.6V36.05H51.3V33.6H12.7ZM12.7 38.5V40.95H51.3V38.5H12.7ZM12.7 48.3V50.75H51.3V48.3H12.7ZM12.7 60.85H51.3V58.1H12.7V60.85ZM12.7 53.2V55.65H51.3V53.2H12.7ZM12.7 43.4V45.85H51.3V43.4H12.7ZM12.7 28.7V31.15H51.3V28.7H12.7Z" fill="#EE5253"/>
</svg>
