<svg width="2754" height="517" viewBox="0 0 2754 517" fill="none" xmlns="http://www.w3.org/2000/svg">
<path d="M2511.75 516.94C2505.15 515.38 2498.5 513.88 2491.9 512.14C2455.93 502.42 2435.84 477.581 2427.33 442.061C2395 307.265 2362.62 172.428 2330.2 37.5508C2328.95 32.3309 2327.57 27.111 2326.49 21.8311C2324.33 11.2114 2327.81 6.41147 2338.48 6.17147C2352.87 5.81148 2367.32 6.17147 2381.71 6.17147H2425.77C2439.38 6.17147 2443.1 9.1714 2446.04 22.6711L2478.77 174.648C2495.68 252.846 2512.63 331.004 2529.61 409.122C2530.48 413.211 2532.57 416.938 2535.61 419.802C2541.13 424.602 2547.6 420.522 2549.76 410.922C2555.33 386.383 2560.61 361.783 2565.89 337.184C2588.75 231.786 2611.59 126.369 2634.41 20.9312C2637.05 8.93145 2640.41 6.11151 2652.88 6.11151H2736.82C2753.42 6.11151 2756.3 9.59147 2752.53 25.3711C2734.42 100.769 2716.25 176.188 2698.03 251.626C2682.8 315.104 2667.53 378.583 2652.22 442.061C2641.67 485.74 2617.27 508.06 2572.84 515.2C2571.12 515.62 2569.45 516.223 2567.87 517L2511.75 516.94Z" fill="#E95A0C"/>
<path d="M0.0599217 115.189C1.61874 108.229 3.11764 101.269 4.67646 94.3696C12.9502 57.4705 35.9128 33.291 69.7872 18.1713C97.4731 6.45533 127.202 0.337964 157.261 0.171707C207.865 -0.932417 258.445 3.29074 308.167 12.7715C312.372 13.0731 316.462 14.2806 320.158 16.3114C323.862 18.871 326.439 22.7602 327.353 27.1711C328.012 49.9706 327.772 72.7701 327.353 95.5696C327.353 104.449 324.055 107.569 315.362 107.029C285.384 105.289 254.987 102.469 224.77 101.509C198.45 100.67 172.07 100.969 145.81 102.409C139.383 102.591 133.216 104.989 128.354 109.199C123.492 113.408 120.233 119.17 119.13 125.509C115.832 140.269 118.29 154.128 131.54 163.188C144.79 172.248 159.24 181.188 173.509 189.107C199.949 203.807 226.928 217.547 253.248 232.486C266.463 240.136 279.234 248.529 291.5 257.626C361.647 308.805 367.942 452.561 257.565 498.34C238.68 506.14 217.995 509.56 198.21 515.02C196.232 515.56 194.373 516.28 192.215 516.94H108.098C104.981 516.28 102.103 515.5 98.6853 514.96C75.4229 510.76 52.0406 507.04 28.8981 502.36C17.8664 500.14 15.3483 495.82 15.2884 484.361C15.2884 464.261 15.2884 444.162 15.2884 424.062C15.2884 412.542 19.5452 409.062 30.8167 409.842C68.1685 412.542 105.52 415.482 142.872 417.522C156.042 418.082 169.237 417.561 182.322 415.962C199.409 414.162 212.299 406.122 217.036 388.243C221.772 370.363 220.633 352.244 204.565 339.104C195.933 332.137 186.839 325.763 177.346 320.024C139.994 297.225 101.863 275.685 65.1108 251.986C32.4954 230.926 9.89253 201.707 2.81788 161.988C2.03847 157.668 0.959275 153.348 0 148.968L0.0599217 115.189Z" fill="#E95A0C"/>
<path d="M1113.42 304.305L1155.39 382.003L1214.57 492.101C1215.9 494.435 1217.03 496.885 1217.92 499.421C1220.26 506.38 1217.5 511.12 1210.37 511.42C1174.7 511.42 1138.96 511.84 1103.29 511C1099.33 511 1094.36 504.641 1091.9 500.141C1073.43 465.821 1055.57 431.202 1037.46 396.703C1026.19 375.223 1014.8 353.804 1003.71 332.204C1002.89 330.177 1001.42 328.482 999.53 327.393C997.637 326.305 995.433 325.886 993.273 326.204C977.445 326.624 961.677 326.204 944.77 326.204V491.681C944.77 507.64 941.053 511.3 925.285 511.36H845.845C833.014 511.36 828.698 506.98 828.698 494.081V41.091C828.698 21.8915 833.434 14.6316 852.32 11.0917C869.649 7.64522 887.199 5.4198 904.84 4.43186C939.854 2.51191 974.927 0.591915 1009.94 0.831909C1047.47 0.831909 1084.7 5.75186 1119.48 21.7115C1170.62 45.231 1197 85.97 1200.6 141.709C1203.1 165.638 1201.68 189.815 1196.4 213.287C1185.67 254.026 1159.29 281.566 1122.66 300.345C1120.02 301.305 1117.56 302.445 1113.42 304.305ZM944.53 100.67C944.53 143.029 944.53 184.188 944.53 225.287C944.53 231.287 948.187 232.127 952.624 232.067C977.805 231.707 1003.05 232.487 1028.05 230.447C1064.44 227.447 1081.35 210.887 1085.6 177.708C1090.76 136.729 1076.25 112.909 1039.44 103.13C1008.38 95.0898 976.966 99.2297 944.53 100.67Z" fill="#E95A0C"/>
<path d="M1643.48 511.36H1602.11C1587.72 511.36 1584.6 508.78 1581.49 494.441L1555.95 375.883C1536.72 286.885 1517.45 197.887 1498.15 108.889C1496.89 102.89 1495.63 96.3497 1487.54 96.8897C1480.34 97.1897 1479.02 102.89 1477.76 108.889C1451.46 230.247 1425.12 351.644 1398.74 473.081C1396.95 481.601 1395.09 490.061 1393.23 498.521C1393.04 500.463 1392.47 502.349 1391.54 504.063C1390.61 505.778 1389.34 507.286 1387.81 508.497C1386.28 509.708 1384.52 510.596 1382.64 511.109C1380.76 511.622 1378.79 511.748 1376.86 511.48C1348.08 511.06 1319.3 511.48 1290.47 511.48C1274.64 511.48 1271.94 508 1275.72 492.521C1287.35 444.202 1299.02 395.883 1310.73 347.564C1332.43 257.326 1354.1 167.048 1375.72 76.7302C1386.99 30.0513 1414.81 6.4718 1462.42 1.7319C1486.58 -1.12973 1511.05 0.148553 1534.78 5.51185C1570.75 14.3316 1591.56 38.6311 1600.01 73.7303C1633.83 213.487 1667.46 353.264 1700.92 493.061C1704.33 507.28 1700.92 511.42 1685.81 511.48L1643.48 511.36Z" fill="#E95A0C"/>
<path d="M519.445 101.749H413.265C398.696 101.749 394.799 97.7293 394.799 82.8496C394.799 62.8501 394.799 43.0305 394.799 23.391C394.799 10.9112 399.116 6.11133 411.287 6.11133H742.476C755.187 6.11133 759.623 11.0313 759.623 23.691C759.623 43.7905 759.623 63.95 759.623 84.0496C759.623 97.2493 755.247 101.689 741.637 101.689C709.861 101.689 678.025 101.689 646.249 101.689H635.217V491.08C635.217 507.52 631.62 511.12 615.252 511.18H537.911C523.282 511.18 519.445 507.28 519.445 492.4V101.749Z" fill="#E95A0C"/>
<path d="M1946.19 101.75V492.701C1946.19 507.701 1942.6 511.301 1927.79 511.361H1848.59C1834.92 511.361 1831.02 507.521 1831.02 493.782V114.59C1831.02 101.81 1831.02 101.81 1818.55 101.81H1724.96C1710.03 101.81 1706.02 97.8506 1705.96 83.2709C1705.96 63.7913 1705.96 44.2718 1705.96 24.7123C1705.96 10.4926 1710.15 6.17261 1723.94 6.17261H2052.85C2066.82 6.17261 2070.84 10.5525 2070.84 24.1722C2070.84 43.3718 2070.84 62.6313 2070.84 81.8309C2070.84 98.0305 2067.24 101.57 2050.58 101.57H1946.19V101.75Z" fill="#E95A0C"/>
<path d="M2255.68 257.567V492.641C2255.68 507.701 2252.08 511.301 2237.33 511.361H2157.23C2143.5 511.361 2139.91 507.641 2139.85 493.661C2139.79 479.682 2139.85 464.202 2139.85 449.502V26.152C2139.85 8.15239 2141.83 6.05249 2159.93 6.05249H2238.23C2252.74 6.05249 2255.68 8.99236 2255.68 23.332V257.567Z" fill="#E95A0C"/>
</svg>
